<?xml version="1.0" encoding="UTF-8"?> <!-- Generator: Adobe Illustrator 24.2.1, SVG Export Plug-In . SVG Version: 6.00 Build 0) --> <svg xmlns="http://www.w3.org/2000/svg" xmlns:xlink="http://www.w3.org/1999/xlink" version="1.1" id="Layer_1" x="0px" y="0px" viewBox="0 0 120 135" style="enable-background:new 0 0 120 135;" xml:space="preserve"> <style type="text/css"> .st0{fill:#0079D6;} .st1{fill-rule:evenodd;clip-rule:evenodd;fill:#FFFFFF;} </style> <path class="st0" d="M52,4.6L9.6,29.2c-4.9,2.9-8,8.1-8,13.8v49c0,5.7,3,11,8,13.8L52,130.4c4.9,2.9,11,2.9,16,0l42.5-24.5 c4.9-2.9,8-8.1,8-13.8V43c0-5.7-3-11-8-13.8L68,4.6C63,1.8,57,1.8,52,4.6z"></path> <g> <path class="st1" d="M79.1,42.7C79.1,42.7,79,42.7,79.1,42.7c0,0.2,0,0.3-0.1,0.4c0,0,0,0.1,0,0.1c0,0.1-0.1,0.3-0.2,0.4 c0,0,0,0.1,0,0.1c-1.6,2.7-9.4,4.7-18.7,4.7c-9.4,0-17.2-2.1-18.7-4.8c0,0,0,0,0,0c-0.1-0.1-0.1-0.3-0.2-0.4c0,0,0,0,0-0.1 c0-0.2-0.1-0.3-0.1-0.5c0-3.2,8.5-5.7,19-5.7c9.2,0,16.8,2,18.6,4.6C78.9,41.9,79.1,42.3,79.1,42.7z"></path> <g> <path class="st1" d="M61.3,76.9c-1.1,0-2.1-0.4-2.8-1.3c-0.7-0.9-1-2.1-1-3.5c0-1.5,0.4-2.7,1.1-3.6c0.7-0.9,1.6-1.3,2.8-1.3 c1.2,0,2.1,0.4,2.7,1.3c0.7,0.9,1,2.1,1,3.6l0,0c0,1.5-0.3,2.7-1,3.5C63.4,76.4,62.5,76.9,61.3,76.9z"></path> <path class="st1" d="M60,98.2h-0.3v0c-13-0.1-23.6-3.9-23.6-8.7V43.2c0,4.8,10.7,8.7,23.9,8.7s23.9-3.9,23.9-8.7v46.3 C83.9,94.3,73.2,98.2,60,98.2z M46.8,67.3c0.4-0.3,0.9-0.4,1.5-0.4c1.3,0,2.5,0.4,3.5,1.1v-3.2c-1-0.4-2.2-0.6-3.7-0.6 c-1.7,0-3,0.4-4,1.2c-1,0.8-1.5,1.9-1.5,3.3c0,1.9,1.1,3.4,3.4,4.4c1.1,0.5,1.9,1,2.2,1.3c0.4,0.3,0.6,0.7,0.6,1.2 c0,0.5-0.2,0.8-0.6,1.1c-0.4,0.3-0.9,0.4-1.6,0.4c-1.4,0-2.8-0.5-4-1.5V79c1,0.6,2.3,0.8,3.9,0.8c1.8,0,3.3-0.4,4.3-1.2 c1-0.8,1.6-1.9,1.6-3.3l0,0c0-1-0.3-1.9-0.9-2.6c-0.6-0.7-1.6-1.4-3-2c-0.9-0.5-1.6-0.8-1.9-1.1c-0.3-0.3-0.5-0.7-0.5-1.2 C46.2,67.9,46.4,67.5,46.8,67.3z M68.7,71.9c0-1.5-0.3-2.8-0.9-4c-0.6-1.2-1.5-2.1-2.6-2.7s-2.3-1-3.7-1c-1.5,0-2.8,0.3-4,1 c-1.1,0.7-2,1.6-2.7,2.8c-0.6,1.2-1,2.6-1,4.2c0,1.4,0.3,2.7,0.9,3.9c0.6,1.2,1.4,2.1,2.5,2.7c1.1,0.7,2.3,1,3.6,1.1l3.1,3.5h4.4 l-4.4-4.1c1.5-0.5,2.6-1.4,3.4-2.8C68.3,75.2,68.7,73.7,68.7,71.9L68.7,71.9z M80.1,76.8h-5.6V64.4h-3.4v15.2h9L80.1,76.8z"></path> </g> </g> </svg> 